<?xml version="1.0" encoding="utf-8"?>
<!-- Generator: Adobe Illustrator 22.0.1, SVG Export Plug-In . SVG Version: 6.00 Build 0)  -->
<svg version="1.1" id="レイヤー_1" xmlns="http://www.w3.org/2000/svg" xmlns:xlink="http://www.w3.org/1999/xlink" x="0px"
	 y="0px" viewBox="0 0 512 512" style="enable-background:new 0 0 512 512;" xml:space="preserve">
<path d="M256,96c-88.4,0-160,71.6-160,160s71.6,160,160,160s160-71.6,160-160S344.4,96,256,96z M353,353
	c-25.9,25.9-60.3,40.2-97,40.2s-71.1-14.3-97-40.2c-25.9-25.9-40.2-60.3-40.2-97s14.3-71.1,40.2-97c25.9-25.9,60.3-40.2,97-40.2
	s71.1,14.3,97,40.2c25.9,25.9,40.2,60.3,40.2,97S378.9,327.1,353,353z"/>
<path d="M216,148.9c-29,10.8-52.5,33.1-64.8,61.4H256L216,148.9z M368,278.9c1.5-7.5,2.3-15.2,2.3-22.9c0-26.2-8.8-50.3-23.6-69.5
	l-51.4,92.4H368z M330.3,169.1c-20-17.1-45.9-27.4-74.3-27.4c-5.7,0-11.3,0.4-16.7,1.2l55.9,90.2L330.3,169.1L330.3,169.1z
	 M144,233.1c-1.5,7.5-2.3,15.2-2.3,22.9c0,26.2,8.8,50.3,23.6,69.5l51.4-92.4H144z M296,363.1c29-10.8,52.5-33.1,64.8-61.4H256
	L296,363.1L296,363.1z M181.7,342.9c20,17.1,45.9,27.4,74.3,27.4c5.7,0,11.3-0.4,16.8-1.2l-55.9-90.2L181.7,342.9z"/>
</svg>
