<?xml version="1.0" encoding="utf-8"?>
<!-- Generator: Adobe Illustrator 22.0.1, SVG Export Plug-In . SVG Version: 6.00 Build 0)  -->
<svg version="1.1" id="_x31_0" xmlns="http://www.w3.org/2000/svg" xmlns:xlink="http://www.w3.org/1999/xlink" x="0px" y="0px"
	 viewBox="0 0 512 512" style="enable-background:new 0 0 512 512;" xml:space="preserve">
<style type="text/css">
	.st0{fill:#5A5A5A;}
	.st1{fill:#FFFFFF;}
	.st2{fill:#F1E533;}
</style>
<g>
	<path class="st0" d="M400.2,317.3l-62.5-25.7c-2-1-4.1-2-6.2-2.8l-8.3-33.1h52.1v-14.2h20.1v-32c9.2,0,16.6-7.4,16.6-16.6
		c0-9.2-7.4-16.6-16.6-16.6v-36.7h-20.1v-16.6H262.8V70.6c8.8-1.9,15.4-9.7,15.4-19.1c0-10.8-8.7-19.5-19.5-19.5
		c-10.8,0-19.5,8.7-19.5,19.5c0,9.8,7.2,17.9,16.6,19.3v52.3H135v16.6h-20.1v36.7c-9.2,0-16.6,7.4-16.6,16.6
		c0,9.2,7.4,16.6,16.6,16.6v32H135v14.2h56.8l-8.1,32.6c-1.7,0.6-3.4,1.3-5,2.1l0.2-0.4l-66.3,27.2c0,0-17.8,7.1-11.8,27.2
		l19.4,64.1c-3.2,3.1-5.2,7.5-5.2,12.3c0,3.8,1.2,7.3,3.3,10.1l0,0l-16.3,20.1l27.2,20.1l7.1-11.8l-14.2-13l5.4-8.3l-1.5-1.2
		c1.9,0.7,4,1.2,6.2,1.2c4.7,0,8.9-1.9,12-4.9l0,0l11.1,7.3l-7.1,15.4l10.7,4.7l14.2-29.6l-23.7-10.7l0,0.1
		c-0.2-6.7-4.3-12.5-10-15.1l0.2-26.8l0.8-1.7c6.7,30.9,34.3,54.2,67.1,54.2h-8.3l1.2,43.8h-14.2c-3.3,0-5.9,2.7-5.9,5.9
		c0,2,1.6,3.6,3.6,3.6h59.2c2,0,3.6-1.6,3.6-3.6c0-3.3-2.7-5.9-5.9-5.9h-14.2l1.2-43.8h59.2l1.2,43.8h-14.2c-3.3,0-5.9,2.7-5.9,5.9
		c0,2,1.6,3.6,3.6,3.6h59.2c2,0,3.6-1.6,3.6-3.6c0-3.3-2.7-5.9-5.9-5.9h-14.2l1.2-43.8h-8.3c32.2,0,59.4-22.5,66.7-52.5l0,0
		l0.2,26.8c-5.8,2.6-9.8,8.4-10,15.1l0-0.1L339.8,431l14.2,29.6l10.7-4.7l-7.1-15.4l11.1-7.3l0,0c3.1,3,7.3,4.9,12,4.9
		c2.2,0,4.3-0.4,6.2-1.2l-1.5,1.2l5.4,8.3l-14.2,13l7.1,11.8l27.2-20.1L394.6,431l0,0c2.1-2.8,3.3-6.3,3.3-10.1
		c0-4.8-2-9.2-5.2-12.3l19.4-64.1C417.9,324.4,400.2,317.3,400.2,317.3z"/>
	<path class="st1" d="M202.9,217.9c-13.7,0-24.9-11.2-24.9-24.9s11.2-24.9,24.9-24.9s24.9,11.2,24.9,24.9S216.6,217.9,202.9,217.9z
		 M202.9,175.3c-9.8,0-17.8,8-17.8,17.8c0,9.8,8,17.8,17.8,17.8c9.8,0,17.8-8,17.8-17.8C220.6,183.2,212.7,175.3,202.9,175.3z"/>
	<path class="st1" d="M305,217.9c-13.7,0-24.9-11.2-24.9-24.9s11.2-24.9,24.9-24.9c13.7,0,24.9,11.2,24.9,24.9
		S318.7,217.9,305,217.9z M305,175.3c-9.8,0-17.8,8-17.8,17.8c0,9.8,8,17.8,17.8,17.8c9.8,0,17.8-8,17.8-17.8
		C322.8,183.2,314.8,175.3,305,175.3z"/>
	<circle class="st2" cx="258.7" cy="51.5" r="21.9"/>
</g>
</svg>
