<?xml version="1.0" encoding="utf-8"?>
<!-- Generator: Adobe Illustrator 22.0.1, SVG Export Plug-In . SVG Version: 6.00 Build 0)  -->
<svg version="1.1" id="レイヤー_1" xmlns="http://www.w3.org/2000/svg" xmlns:xlink="http://www.w3.org/1999/xlink" x="0px"
	 y="0px" viewBox="0 0 512 512" style="enable-background:new 0 0 512 512;" xml:space="preserve">
<path d="M368.7,336.4V223.2c0-30.9-2.5-47.2-14.7-62.7c-13.3-16.7-30-23.9-55.9-23.9h-14.7V96l-64,64l64,64v-43.3H298
	c16.4,0,19.3,2.4,22.5,6.4c3.7,4.6,5.5,12.7,5.5,36.1v113.2c-12.7,7.4-21.3,21.1-21.3,36.9c0,23.5,19.1,42.7,42.7,42.7
	s42.7-19.1,42.7-42.7C390,357.5,381.4,343.8,368.7,336.4z M347.3,400c-14.7,0-26.7-11.9-26.7-26.7s11.9-26.7,26.7-26.7
	s26.7,11.9,26.7,26.7S362.1,400,347.3,400z M176.7,117.3c-23.5,0-42.7,19.1-42.7,42.7c0,15.8,8.6,29.5,21.3,36.9v139.5
	c-12.7,7.4-21.3,21.1-21.3,36.9c0,23.5,19.1,42.7,42.7,42.7s42.7-19.1,42.7-42.7c0-15.8-8.6-29.5-21.3-36.9V196.9
	c12.7-7.4,21.3-21.1,21.3-36.9C219.3,136.5,200.2,117.3,176.7,117.3z M176.7,400c-14.7,0-26.7-11.9-26.7-26.7s11.9-26.7,26.7-26.7
	s26.7,11.9,26.7,26.7S191.4,400,176.7,400z M176.7,186.7c-14.7,0-26.7-11.9-26.7-26.7s11.9-26.7,26.7-26.7s26.7,11.9,26.7,26.7
	S191.4,186.7,176.7,186.7z"/>
</svg>
