<?xml version="1.0" encoding="utf-8"?>
<!-- Generator: Adobe Illustrator 22.0.1, SVG Export Plug-In . SVG Version: 6.00 Build 0)  -->
<svg version="1.1" id="レイヤー_1" xmlns="http://www.w3.org/2000/svg" xmlns:xlink="http://www.w3.org/1999/xlink" x="0px"
	 y="0px" viewBox="0 0 512 512" style="enable-background:new 0 0 512 512;" xml:space="preserve">
<path d="M340,314.1c-10.5,0-20.4,3.5-27.4,10.5l-100.5-58.1c0.7-3.5,1.4-6.3,1.4-9.8c0-3.5-0.7-6.3-1.4-9.8l99.1-57.4
	c7.7,7,17.6,11.2,28.8,11.2c23.2,0,42.2-18.9,42.2-42c0-23.1-19-42-42.2-42c-23.2,0-42.2,18.9-42.2,42c0,3.5,0.7,6.3,1.4,9.8
	l-99.1,57.4c-7.7-7-17.6-11.2-28.8-11.2c-23.2,0-41.5,18.9-41.5,42c0,23.1,19,42,42.2,42c11.2,0,21.1-4.2,28.8-11.2l99.8,58.1
	c-0.7,2.8-1.4,5.6-1.4,9.1c0,22.4,18.3,40.6,40.8,40.6c22.5,0,40.8-18.2,40.8-40.6C380.7,332.3,362.5,314.1,340,314.1L340,314.1z"/>
</svg>
