<?xml version="1.0" encoding="utf-8"?>
<!-- Generator: Adobe Illustrator 22.0.1, SVG Export Plug-In . SVG Version: 6.00 Build 0)  -->
<svg version="1.1" id="レイヤー_1" xmlns="http://www.w3.org/2000/svg" xmlns:xlink="http://www.w3.org/1999/xlink" x="0px"
	 y="0px" viewBox="0 0 512 512" style="enable-background:new 0 0 512 512;" xml:space="preserve">
<path d="M256,128.3c34.1,0,66.2,13.3,90.3,37.4c24.1,24.2,37.4,56.2,37.4,90.3s-13.3,66.2-37.4,90.3c-24.2,24.1-56.2,37.4-90.3,37.4
	s-66.2-13.3-90.3-37.4c-24.1-24.2-37.4-56.2-37.4-90.3s13.3-66.2,37.4-90.3C189.8,141.6,221.9,128.3,256,128.3 M256,96
	c-88.4,0-160,71.6-160,160s71.6,160,160,160s160-71.6,160-160S344.4,96,256,96z"/>
<path d="M239.8,319.8h32.3v32.3h-32.3V319.8z M272,303.7h-32c0-51.5,48-47.8,48-79.8c0-17.6-14.4-32.1-32-32.1
	c-17.6,0-32,15-32,31.9h-32c0-35.4,28.6-63.8,64-63.8s64,28.5,64,63.9C320,263.8,272,268.3,272,303.7z"/>
</svg>
