<?xml version="1.0" encoding="utf-8"?>
<!-- Generator: Adobe Illustrator 22.0.1, SVG Export Plug-In . SVG Version: 6.00 Build 0)  -->
<svg version="1.1" id="レイヤー_1" xmlns="http://www.w3.org/2000/svg" xmlns:xlink="http://www.w3.org/1999/xlink" x="0px"
	 y="0px" viewBox="0 0 512 512" style="enable-background:new 0 0 512 512;" xml:space="preserve">
<path d="M392.7,345.1L239.6,200.7c0,0,5.5-36.2,16.4-45c11-8.9,30.1-20.1,30.1-20.1v-20.1c-20.1,0-36.9,5.2-60.7,17.1
	c-23.8,11.8-41.9,30-46.6,34.7c-4.8,4.8-11.3,12.2-15.5,18.1c-4.1,5.9-3.3,12.6-3.3,12.6l-12.3,10.7l-2.5-2.5
	c-1.4-1.4-3.9-1.4-5.3,0l-23.1,23.1c-1.4,1.4-1.4,3.9,0,5.3l37.2,37.2c1.4,1.4,3.9,1.4,5.3,0l23.1-23.1c1.4-1.4,1.4-3.9,0-5.3
	l-6.5-6.5l9.2-9c4.3-2.3,15.9-5.6,24.5-3.2l134.7,167.6c5.1,5.1,12.7,5.1,17.9,0l29.3-29.5C397.8,357.9,397.8,348.9,392.7,345.1
	L392.7,345.1z"/>
</svg>
