<?xml version="1.0" encoding="utf-8"?>
<!-- Generator: Adobe Illustrator 22.0.1, SVG Export Plug-In . SVG Version: 6.00 Build 0)  -->
<svg version="1.1" id="レイヤー_1" xmlns="http://www.w3.org/2000/svg" xmlns:xlink="http://www.w3.org/1999/xlink" x="0px"
	 y="0px" viewBox="0 0 2500 1710" style="enable-background:new 0 0 2500 1710;" xml:space="preserve">
<style type="text/css">
	.st0{fill:#0A9E01;}
	.st1{fill:#343C34;}
</style>
<g>
	<path class="st0" d="M1250,213.2H311.4v310.7h310.7v640.8h317.2V523.9H1250V213.2z M1560.7,213.2h627.9v310.7h-627.9V213.2z
		 M1560.7,837.5V523.9H1250v640.8h938.6V837.9L1560.7,837.5z"/>
</g>
<path class="st0" d="M440.9,1294.1v194.2h-51.8v-194.2h-77.7v-38.8h194.2v38.8H440.9z M651.1,1410.7H543.4
	c1.7,25.9,19.9,37.8,37,37.8c13,0,24-2.9,30.9-10.8l33.6,29.1c-14.4,18.5-40.5,29.6-64.5,29.6c-51.8,0-84.7-36.5-84.7-93.4
	c0-55.2,34.6-93.9,80.3-93.9c48,0,75.8,38.8,75.8,90.2C651.8,1406.2,651.4,1410.7,651.1,1410.7L651.1,1410.7z M573.6,1352.5
	c-17.2,0-27.8,6.4-29.5,32.2h61.7C604.4,1358.9,594.8,1352.5,573.6,1352.5L573.6,1352.5z M764.6,1496.8c-47,0-84.4-38.4-84.4-93.6
	c0-55.2,36.4-94,86.4-94c34.3,0,56.2,16.8,71.3,39.8l-31.2,31.5c-10.6-15.1-21.9-25.7-41.2-25.7c-22.6,0-37.4,18.9-37.4,48.4
	c0,28.8,14.7,48,37.4,48c18.5,0,30.2-8.2,42.5-23l30.2,28.5C820.8,1480,800.3,1496.8,764.6,1496.8L764.6,1496.8z M978.1,1488.3
	v-92.7c0-32.2-6.2-41.8-25.7-41.8s-26.1,9.6-26.1,40.8v93.7h-51.8v-221.6l51.8-23.7v82c0-8.6,20.7-15.8,39.6-15.8
	c46,0,64,31.5,64,82.3v96.8L978.1,1488.3L978.1,1488.3z"/>
<path class="st1" d="M1219,1322.9c-8.6-16.5-22.3-26.1-43.9-26.1c-36,0-56.6,31.6-56.6,76.1c0,43.2,20.9,76.1,56.9,76.1
	c21.6,0,34.3-9.3,47-30.5l40.5,24c-16.5,34-45.3,54.2-88.8,54.2c-62.8,0-105-48-105-123.8c0-73.1,43.9-123.8,106.7-123.8
	c45.3,0,72.7,21.9,87.8,53.1L1219,1322.9L1219,1322.9z M1395.3,1368.2c-7.5-6.9-15.2-11.7-25.8-11.7c-18.5,0-28.9,7.9-28.9,39.1
	v92.7h-51.8v-181.2h51.8v17.9c12.9-8.6,18.6-15.8,35.4-15.8c15.4,0,26.3,6.2,32.4,12.7L1395.3,1368.2z M1547.8,1486.7v-5.7
	c-12.9,8.6-20.7,15.8-39.6,15.8c-46,0-64-31.6-64-82.3v-107.4h38.8v103.3c0,32.2,12.6,41.8,32.2,41.8c19.5,0,32.5-9.6,32.5-40.8
	v-104.3h51.8v181.2h-53.8L1547.8,1486.7L1547.8,1486.7z M1735.5,1488.3v-92.7c0-32.2-2.9-41.8-22.5-41.8c-19.5,0-22.8,9.6-22.8,40.8
	v93.7h-51.8v-181.2h51.8v17.9c0-8.6,17.5-15.8,36.4-15.8c46,0,60.7,31.5,60.7,82.3v96.8L1735.5,1488.3z M1912.5,1496.8
	c-47,0-84.4-38.4-84.4-93.6c0-55.2,36.4-94,86.4-94c34.3,0,56.3,16.8,71.3,39.8l-31.2,31.5c-10.6-15.1-21.9-25.7-41.1-25.7
	c-22.7,0-37.4,18.9-37.4,48.4c0,28.8,14.8,48,37.4,48c18.5,0,30.2-8.2,42.5-23l30.2,28.5C1968.7,1480,1948.2,1496.8,1912.5,1496.8
	L1912.5,1496.8z M2123.8,1493.1v-97.4c0-32.2-6.2-41.8-25.7-41.8c-19.5,0-26.1,9.6-26.1,40.8v93.7h-51.8v-221.6l51.8-23.7v82
	c0-8.6,20.7-15.8,39.6-15.8c46,0,64,31.5,64,82.3v96.8h-50.6L2123.8,1493.1L2123.8,1493.1z"/>
</svg>
